# xmcd
# 
# Track frame offsets:
#     150
#     17651
#     31821
#     47835
#     64262
#     81398
#     94945
#     114717
#     131068
# 
# Disc length: 2003
# 
# Revision: 7
# Processed by: cddbd v1.5.2PL0 Copyright (c) Steve Scherf et al.
# Submitted via: fre:ac v1.0.31
# 
DISCID=7907d109
DTITLE=相対性理論 - ハイファイ新書
DYEAR=2009
DGENRE=JPop
TTITLE0=テレ東
TTITLE1=地獄先生
TTITLE2=ふしぎデカルト
TTITLE3=四角革命
TTITLE4=品川ナンバー
TTITLE5=学級崩壊
TTITLE6=さわやか会社員
TTITLE7=ルネサンス
TTITLE8=バーモント・キッス
EXTD=YEAR: 2009
EXTT0=
EXTT1=
EXTT2=
EXTT3=
EXTT4=
EXTT5=
EXTT6=
EXTT7=
EXTT8=
PLAYORDER=
